<?xml version="1.0" standalone="no"?>
<!DOCTYPE svg PUBLIC "-//W3C//DTD SVG 20010904//EN"
 "http://www.w3.org/TR/2001/REC-SVG-20010904/DTD/svg10.dtd">
<svg version="1.0" xmlns="http://www.w3.org/2000/svg"
 width="200.000000pt" height="200.000000pt" viewBox="0 0 200.000000 200.000000"
 preserveAspectRatio="xMidYMid meet">
<metadata>
Created by potrace 1.11, written by Peter Selinger 2001-2013
</metadata>
<g transform="translate(0.000000,200.000000) scale(0.100000,-0.100000)"
fill="#000000" stroke="none">
<path d="M0 1000 l0 -1000 1000 0 1000 0 0 1000 0 1000 -1000 0 -1000 0 0
-1000z m683 508 c8 -24 68 -185 132 -358 64 -173 132 -357 150 -407 l34 -93
-123 0 -123 0 -29 95 -29 95 -165 0 -166 0 -30 -92 -30 -93 -121 -3 -121 -3
83 223 c45 123 120 325 166 450 l84 228 137 0 136 0 15 -42z m976 31 c133 -28
204 -136 171 -257 -12 -46 -69 -117 -102 -128 -25 -7 -14 -18 34 -33 20 -7 54
-29 75 -49 102 -99 75 -278 -56 -361 -82 -53 -138 -61 -413 -61 l-248 0 0 450
0 450 245 0 c134 0 266 -5 294 -11z"/>
<path d="M479 1172 c-26 -75 -50 -145 -54 -154 -7 -17 2 -18 102 -18 l109 0
-47 140 c-27 77 -52 147 -56 154 -5 9 -24 -33 -54 -122z"/>
<path d="M1360 1289 l0 -102 85 5 c65 3 92 9 112 24 36 27 48 74 29 118 -17
42 -57 56 -158 56 l-68 0 0 -101z"/>
<path d="M1360 920 l0 -110 81 0 c154 0 209 31 209 116 0 78 -51 104 -202 104
l-88 0 0 -110z"/>
</g>
</svg>
